{"title":"Lips.of.Blood.1975.Levres.de.Sang.720p.BluRay.x264-BiRD","uid":9396679,"size":2039769268,"categoryP":"video","categoryS":"hd___movies","magnet":"?xt=urn:btih:8961eb163b6d2b3f8b94a9344abdc86d805626b6&amp;dn=Lips.of.Blood.1975.Levres.de.Sang.720p.BluRay.x264-BiRD&amp;tr=udp%3A%2F%2Ftracker.openbittorrent.com%3A80&amp;tr=udp%3A%2F%2Fopen.demonii.com%3A1337&amp;tr=udp%3A%2F%2Ftracker.coppersurfer.tk%3A6969&amp;tr=udp%3A%2F%2Fexodus.desync.com%3A6969","seeders":4,"leechers":1,"uploader":"mago1974","files":3,"time":1387994287,"description":"General\nUnique ID                      : 181795229532012949625040616663866657777 (0x88C47CD555F4BD04BD51A260DBFFCBF1)\nComplete name                  : Lips of Blood 1975 m720p BluRay x264-BiRD.mkv\nFormat                         : Matroska\nFormat version                 : Version 2\nFile size                      : 1.90 GiB\nDuration                       : 1h 27mn\nOverall bit rate               : 3 109 Kbps\nEncoded date                   : UTC 2012-02-20 18:55:26\nWriting application            : mkvmerge v4.0.0 ('The Stars were mine') built on Jun  6 2010 16:18:42\nWriting library                : libebml v1.0.0 + libmatroska v1.0.0\n\nVideo\nID                             : 1\nFormat                         : AVC\nFormat/Info                    : Advanced Video Codec\nFormat profile                 : &lt;a class=&quot;__cf_email__&quot; href=&quot;/cdn-cgi/l/email-protection&quot; data-cfemail=&quot;82caebe5eac2ceb6acb3&quot;&gt;[email&amp;#160;protected]&lt;/a&gt;&lt;script cf-hash='f9e31' type=&quot;text/javascript&quot;&gt;\n/* &lt;![CDATA[ */!function(){try{var t=&quot;currentScript&quot;in document?document.currentScript:function(){for(var t=document.getElementsByTagName(&quot;script&quot;),e=t.length;e--;)if(t[e].getAttribute(&quot;cf-hash&quot;))return t[e]}();if(t&amp;&amp;t.previousSibling){var e,r,n,i,c=t.previousSibling,a=c.getAttribute(&quot;data-cfemail&quot;);if(a){for(e=&quot;&quot;,r=parseInt(a.substr(0,2),16),n=2;a.length-n;n+=2)i=parseInt(a.substr(n,2),16)^r,e+=String.fromCharCode(i);e=document.createTextNode(e),c.parentNode.replaceChild(e,c)}}}catch(u){}}();/* ]]&gt; */&lt;/script&gt;\nFormat settings, CABAC         : Yes\nFormat settings, ReFrames      : 8 frames\nCodec ID                       : V_MPEG4/ISO/AVC\nDuration                       : 1h 27mn\nBit rate                       : 2 660 Kbps\nWidth                          : 1 208 pixels\nHeight                         : 720 pixels\nDisplay aspect ratio           : 1.678\nFrame rate mode                : Constant\nFrame rate                     : 23.976 fps\nColor space                    : YUV\nChroma subsampling             : 4:2:0\nBit depth                      : 8 bits\nScan type                      : Progressive\nBits/(Pixel*Frame)             : 0.128\nStream size                    : 1.59 GiB (84%)\nWriting library                : x264 core 120 r2164 da19765\nEncoding settings              : cabac=1 / ref=9 / deblock=1:-3:-3 / analyse=0x3:0x113 / me=umh / subme=10 / psy=1 / psy_rd=1.00:0.00 / mixed_ref=1 / me_range=16 / chroma_me=1 / trellis=2 / 8x8dct=1 / cqm=0 / deadzone=21,11 / fast_pskip=1 / chroma_qp_offset=-2 / threads=12 / sliced_threads=0 / nr=0 / decimate=1 / interlaced=0 / bluray_compat=0 / constrained_intra=0 / bframes=3 / b_pyramid=1 / b_adapt=1 / b_bias=0 / direct=1 / weightb=1 / open_gop=0 / weightp=2 / keyint=250 / keyint_min=23 / scenecut=40 / intra_refresh=0 / rc=2pass / mbtree=0 / bitrate=2660 / ratetol=1.0 / qcomp=0.60 / qpmin=0 / qpmax=69 / qpstep=4 / cplxblur=20.0 / qblur=0.5 / ip_ratio=1.40 / pb_ratio=1.30 / aq=1:0.80\nLanguage                       : French\nDefault                        : Yes\nForced                         : No\n\nAudio\nID                             : 2\nFormat                         : AC-3\nFormat/Info                    : Audio Coding 3\nMode extension                 : CM (complete main)\nFormat settings, Endianness    : Big\nCodec ID                       : A_AC3\nDuration                       : 1h 27mn\nBit rate mode                  : Constant\nBit rate                       : 448 Kbps\nChannel count                  : 2 channels\nChannel positions              : Front: L R\nSampling rate                  : 48.0 KHz\nBit depth                      : 16 bits\nCompression mode               : Lossy\nStream size                    : 280 MiB (14%)\nLanguage                       : French\nDefault                        : Yes\nForced                         : No\n\nText\nID                             : 3\nFormat                         : UTF-8\nCodec ID                       : S_TEXT/UTF8\nCodec ID/Info                  : UTF-8 Plain Text\nLanguage                       : English\nDefault                        : Yes\nForced                         : No\n\nMenu\n00:00:00.000                   : en:Chapter 01\n00:05:57.231                   : en:Chapter 02\n00:18:31.401                   : en:Chapter 03\n00:26:11.236                   : en:Chapter 04\n00:37:11.354                   : en:Chapter 05\n00:44:46.850                   : en:Chapter 06\n00:54:36.731                   : en:Chapter 07\n01:00:47.518                   : en:Chapter 08\n01:10:49.620                   : en:Chapter 09\n01:18:13.563                   : en:Chapter 10\n","torrent":{"xt":"urn:btih:8961eb163b6d2b3f8b94a9344abdc86d805626b6","amp;dn":"Lips.of.Blood.1975.Levres.de.Sang.720p.BluRay.x264-BiRD","amp;tr":["udp%3A%2F%2Ftracker.openbittorrent.com%3A80","udp%3A%2F%2Fopen.demonii.com%3A1337","udp%3A%2F%2Ftracker.coppersurfer.tk%3A6969","udp%3A%2F%2Fexodus.desync.com%3A6969"],"infoHash":"8961eb163b6d2b3f8b94a9344abdc86d805626b6","infoHashBuffer":{"type":"Buffer","data":[137,97,235,22,59,109,43,63,139,148,169,52,74,189,200,109,128,86,38,182]},"announce":[],"urlList":[]}}